HIERARCHY
ROOT Hips
{
	OFFSET 2.298212 67.878815 0.000000
	CHANNELS 6 Xposition Yposition Zposition Xrotation Yrotation Zrotation
	JOINT Bip01_Pelvis
	{
		OFFSET 0.000000 0.000000 -0.000000
		CHANNELS 3 Xrotation Yrotation Zrotation
		JOINT BN_Tail_01
		{
			OFFSET -6.899146 3.499413 0.000000
			CHANNELS 3 Xrotation Yrotation Zrotation
			JOINT BN_Tail_02
			{
				OFFSET -11.097242 -3.005508 0.000022
				CHANNELS 3 Xrotation Yrotation Zrotation
				JOINT BN_Tail_03
				{
					OFFSET -10.095407 -5.779785 0.000033
					CHANNELS 3 Xrotation Yrotation Zrotation
					JOINT BN_Tail_04
					{
						OFFSET -5.548622 -8.631191 0.000030
						CHANNELS 3 Xrotation Yrotation Zrotation
						End Site
						{
							OFFSET 10.166740 -1.386387 -0.000010
						}
					}
				}
			}
		}
		JOINT Bip01_Spine
		{
			OFFSET 6.029028 0.007965 -0.000005
			CHANNELS 3 Xrotation Yrotation Zrotation
			JOINT Bip01_R_Thigh
			{
				OFFSET -6.029011 -0.007935 10.812546
				CHANNELS 3 Xrotation Yrotation Zrotation
				JOINT Bip01_R_Calf
				{
					OFFSET 6.571476 -15.794937 1.781280
					CHANNELS 3 Xrotation Yrotation Zrotation
					JOINT Bip01_R_HorseLink
					{
						OFFSET -14.139996 -16.872330 -4.939990
						CHANNELS 3 Xrotation Yrotation Zrotation
						JOINT Bip01_R_Foot
						{
							OFFSET 3.770021 -26.265705 0.647395
							CHANNELS 3 Xrotation Yrotation Zrotation
							JOINT Bip01_R_Toe1
							{
								OFFSET 3.788088 -6.546797 -0.241568
								CHANNELS 3 Xrotation Yrotation Zrotation
								JOINT Bip01_R_Toe11
								{
									OFFSET 7.421610 -1.353832 -0.000004
									CHANNELS 3 Xrotation Yrotation Zrotation
									JOINT Bip01_R_Toe1Nub
									{
										OFFSET 8.832827 -1.611263 -0.000004
										CHANNELS 3 Xrotation Yrotation Zrotation
										End Site
										{
											OFFSET 1.611267 8.832824 -0.000016
										}
									}
								}
							}
							JOINT Bip01_R_Toe0
							{
								OFFSET 1.507501 -6.014594 2.822071
								CHANNELS 3 Xrotation Yrotation Zrotation
								JOINT Bip01_R_Toe01
								{
									OFFSET 5.007060 -1.569916 3.080155
									CHANNELS 3 Xrotation Yrotation Zrotation
									JOINT Bip01_R_Toe0Nub
									{
										OFFSET 4.871449 -1.527396 2.996733
										CHANNELS 3 Xrotation Yrotation Zrotation
										End Site
										{
											OFFSET 1.300957 5.719387 0.800289
										}
									}
								}
							}
						}
					}
				}
			}
			JOINT Bip01_L_Thigh
			{
				OFFSET -6.029045 -0.007973 -10.812530
				CHANNELS 3 Xrotation Yrotation Zrotation
				JOINT Bip01_L_Calf
				{
					OFFSET 6.571461 -15.794945 -1.781260
					CHANNELS 3 Xrotation Yrotation Zrotation
					JOINT Bip01_L_HorseLink
					{
						OFFSET -14.139986 -16.872318 4.940070
						CHANNELS 3 Xrotation Yrotation Zrotation
						JOINT Bip01_L_Foot
						{
							OFFSET 3.769989 -26.265713 -0.647333
							CHANNELS 3 Xrotation Yrotation Zrotation
							JOINT Bip01_L_Toe1
							{
								OFFSET 3.788085 -6.546793 0.241581
								CHANNELS 3 Xrotation Yrotation Zrotation
								JOINT Bip01_L_Toe11
								{
									OFFSET 7.421610 -1.353837 -0.000007
									CHANNELS 3 Xrotation Yrotation Zrotation
									JOINT Bip01_L_Toe1Nub
									{
										OFFSET 8.832822 -1.611264 -0.000008
										CHANNELS 3 Xrotation Yrotation Zrotation
										End Site
										{
											OFFSET -1.611261 -8.832818 0.000007
										}
									}
								}
							}
							JOINT Bip01_L_Toe0
							{
								OFFSET 1.507489 -6.014597 -2.822060
								CHANNELS 3 Xrotation Yrotation Zrotation
								JOINT Bip01_L_Toe01
								{
									OFFSET 5.007050 -1.569929 -3.080164
									CHANNELS 3 Xrotation Yrotation Zrotation
									JOINT Bip01_L_Toe0Nub
									{
										OFFSET 4.871441 -1.527405 -2.996738
										CHANNELS 3 Xrotation Yrotation Zrotation
										End Site
										{
											OFFSET -1.300957 -5.719383 0.800304
										}
									}
								}
							}
						}
					}
				}
			}
			JOINT Bip01_Spine1
			{
				OFFSET 10.002218 -0.753799 -0.000015
				CHANNELS 3 Xrotation Yrotation Zrotation
				JOINT BN_Forearm_L_01
				{
					OFFSET 5.919939 -1.360497 -7.682490
					CHANNELS 3 Xrotation Yrotation Zrotation
					JOINT BN_Forearm_L_02
					{
						OFFSET -5.353483 2.809502 -11.572657
						CHANNELS 3 Xrotation Yrotation Zrotation
						JOINT BN_Forearm_L_03
						{
							OFFSET -0.991812 -5.662376 -20.602930
							CHANNELS 3 Xrotation Yrotation Zrotation
							JOINT BN_Forearm_L_07
							{
								OFFSET -7.168705 7.834190 -1.155437
								CHANNELS 3 Xrotation Yrotation Zrotation
								JOINT BN_Forearm_L_08
								{
									OFFSET -11.939425 -6.105667 -15.651306
									CHANNELS 3 Xrotation Yrotation Zrotation
									End Site
									{
										OFFSET -14.576792 13.310867 5.927078
									}
								}
							}
							JOINT BN_Forearm_L_05
							{
								OFFSET 4.369921 -3.880672 1.679504
								CHANNELS 3 Xrotation Yrotation Zrotation
								JOINT BN_Forearm_L_06
								{
									OFFSET 0.215588 -15.759068 -13.281502
									CHANNELS 3 Xrotation Yrotation Zrotation
									End Site
									{
										OFFSET -9.450302 11.727943 -14.069126
									}
								}
							}
							JOINT BN_Forearm_L_04
							{
								OFFSET -6.331198 -8.406956 -17.720940
								CHANNELS 3 Xrotation Yrotation Zrotation
								End Site
								{
									OFFSET -8.360548 9.136719 -1.347553
								}
							}
						}
					}
				}
				JOINT BN_Forearm_R_01
				{
					OFFSET 5.919971 -1.360451 7.682717
					CHANNELS 3 Xrotation Yrotation Zrotation
					JOINT BN_Forearm_R_02
					{
						OFFSET -5.353445 2.809563 11.572668
						CHANNELS 3 Xrotation Yrotation Zrotation
						JOINT BN_Forearm_R_03
						{
							OFFSET -0.991760 -5.662262 20.602953
							CHANNELS 3 Xrotation Yrotation Zrotation
							JOINT BN_Forearm_R_07
							{
								OFFSET -7.168681 7.834183 1.155418
								CHANNELS 3 Xrotation Yrotation Zrotation
								JOINT BN_Forearm_R_08
								{
									OFFSET -11.939366 -6.105583 15.651413
									CHANNELS 3 Xrotation Yrotation Zrotation
									End Site
									{
										OFFSET 14.576847 -13.310833 5.927101
									}
								}
							}
							JOINT BN_Forearm_R_05
							{
								OFFSET 4.369925 -3.880692 -1.679527
								CHANNELS 3 Xrotation Yrotation Zrotation
								JOINT BN_Forearm_R_06
								{
									OFFSET 0.215656 -15.758995 13.281578
									CHANNELS 3 Xrotation Yrotation Zrotation
									End Site
									{
										OFFSET 9.450270 -11.728004 -14.069077
									}
								}
							}
							JOINT BN_Forearm_R_04
							{
								OFFSET -6.331113 -8.406864 17.721020
								CHANNELS 3 Xrotation Yrotation Zrotation
								End Site
								{
									OFFSET 8.360539 -9.136719 -1.347530
								}
							}
						}
					}
				}
				JOINT Bip01_Neck
				{
					OFFSET 9.877300 1.694740 -0.000023
					CHANNELS 3 Xrotation Yrotation Zrotation
					JOINT Bip01_Neck1
					{
						OFFSET 2.668684 8.053459 -0.000013
						CHANNELS 3 Xrotation Yrotation Zrotation
						JOINT Bip01_Neck2
						{
							OFFSET -1.620844 8.097382 -0.000006
							CHANNELS 3 Xrotation Yrotation Zrotation
							JOINT Bip01_Neck3
							{
								OFFSET -4.366737 7.438797 0.000001
								CHANNELS 3 Xrotation Yrotation Zrotation
								JOINT Bip01_Neck4
								{
									OFFSET -3.400084 8.587135 0.000002
									CHANNELS 3 Xrotation Yrotation Zrotation
									JOINT Bip01_Head
									{
										OFFSET 0.270100 8.878807 -0.000004
										CHANNELS 3 Xrotation Yrotation Zrotation
										JOINT BN_Eye_L_01
										{
											OFFSET 4.145815 5.134621 -1.911167
											CHANNELS 3 Xrotation Yrotation Zrotation
											End Site
											{
												OFFSET 1.795364 -5.702621 -2.593221
											}
										}
										JOINT BN_Eye_R_01
										{
											OFFSET 4.145830 5.134628 1.910949
											CHANNELS 3 Xrotation Yrotation Zrotation
											End Site
											{
												OFFSET 1.795376 -5.702614 2.593231
											}
										}
										JOINT BN_Mouth_01
										{
											OFFSET 2.275660 2.336296 -0.000057
											CHANNELS 3 Xrotation Yrotation Zrotation
											End Site
											{
												OFFSET 1.292419 6.387306 -0.000016
											}
										}
										JOINT Bip01_HeadNub
										{
											OFFSET 1.617138 8.919075 -0.000006
											CHANNELS 3 Xrotation Yrotation Zrotation
											End Site
											{
												OFFSET 6.412201 -1.162621 0.000003
											}
										}
									}
								}
							}
						}
					}
				}
			}
		}
	}
}
MOTION
Frames: 5
Frame Time: 0.033333
-3.074995 69.149788 -0.000000 0.000000 -0.000001 -8.665529 0.003491 -0.000000 -0.000008 -0.005647 0.042087 0.000032 0.000021 -0.000040 -0.000924 0.000007 0.000019 -0.002597 0.005507 -0.035567 -0.002467 0.000244 -0.000096 0.764271 -1.953528 4.921039 -16.444556 -7.843725 -2.329241 25.331261 1.294557 0.041903 -3.997602 9.780550 -13.808812 9.958032 -0.918871 0.058947 -6.556676 0.000008 0.000016 9.232000 0.000000 0.000001 -0.000000 -0.922361 0.053345 -6.557075 -4.238891 -0.255697 6.901086 0.000001 0.000002 -0.000001 5.559425 -2.636306 10.284235 7.513434 2.149305 24.183992 -2.161186 -0.019446 -6.672938 -3.353938 21.223460 -21.064585 -0.000119 0.000008 -0.000311 0.000008 0.000020 9.231986 0.000028 -0.000029 0.039536 -0.001875 -0.003490 -0.000861 4.238866 0.255700 6.901072 0.020775 -0.000035 0.033687 -0.000024 -0.000037 -11.950522 23.130683 4.966458 -20.148250 -22.427169 56.941829 -6.931248 -31.418798 -6.669912 -7.157310 0.573895 -8.145202 12.087563 6.531804 6.211334 -14.067377 14.649007 9.794554 -9.767124 -17.279832 -10.572204 2.649137 -6.069005 6.680573 6.561759 -23.131086 -4.961891 -20.147706 22.427232 -56.941894 -6.931013 31.418754 6.669911 -7.157454 -0.573836 8.145252 12.087427 -6.531876 -6.211418 -14.067353 -14.649011 -9.794641 -9.767083 17.279815 10.572293 2.649038 6.069015 -6.680551 6.561752 -0.000085 0.000052 -53.321986 -0.000097 -0.000007 -0.177490 -0.000055 -0.000058 0.372979 -0.000024 -0.000029 50.678662 -0.000072 0.000172 33.461855 0.000014 -0.000219 -10.426109 0.003104 -0.000165 0.002375 -0.002552 0.003391 0.004582 0.036920 0.020860 -9.319526 0.000000 -0.000000 -0.000001 
-4.218641 68.510925 0.068899 -0.007679 0.416561 -8.878437 0.003491 -0.000000 -0.000007 0.008798 -0.040601 0.024020 0.009737 -0.023256 0.002794 0.017579 -0.013181 -0.113651 0.019886 0.011372 -0.131317 -0.006962 -0.102421 0.244097 -3.073948 5.185322 -11.444357 -6.023157 -1.438340 19.136646 0.340137 0.019803 -1.051267 9.608445 -14.281752 9.122223 -0.919526 0.054334 -6.592458 0.000007 0.000016 9.232000 0.000000 0.000002 0.000001 -0.919538 0.056511 -6.593107 -4.238889 -0.255695 6.901086 -0.000001 0.000001 -0.000002 8.008352 -2.314152 17.092641 3.781138 0.651504 11.841520 -0.382912 -0.021833 -1.183336 -3.817155 21.457855 -21.005113 -0.021009 -0.008319 0.207401 0.000009 0.000020 9.231989 0.000027 -0.000029 0.039536 -0.277558 0.011279 0.280667 4.238939 0.255724 6.901186 0.020775 -0.000042 0.033687 -0.007818 -0.102248 -12.448836 23.170741 5.001631 -20.160077 -22.427167 56.941829 -6.931242 -31.418795 -6.669906 -7.157306 0.573896 -8.145199 12.087563 6.531805 6.211330 -14.067380 14.649014 9.794554 -9.767120 -17.279832 -10.572200 2.649135 -6.068999 6.680573 6.561764 -23.062649 -5.090952 -20.203385 22.427244 -56.941901 -6.931006 31.418744 6.669906 -7.157455 -0.573836 8.145250 12.087427 -6.531879 -6.211418 -14.067354 -14.649007 -9.794637 -9.767087 17.279819 10.572298 2.649035 6.069018 -6.680548 6.561746 0.061453 -0.286712 -51.090915 -0.126854 -0.036459 -1.601058 0.046152 0.110537 3.033386 -0.035344 0.062205 47.554318 0.073112 0.035499 31.550734 -0.342738 -0.198805 -7.731908 0.116653 0.028374 0.017685 -0.116192 -0.025404 0.019970 0.039064 0.020484 -8.897156 0.000000 0.000000 -0.000002 
-5.392084 67.795166 0.155846 -0.006981 0.844006 -9.137100 0.003491 -0.000000 -0.000008 0.026500 -0.101546 0.090234 0.045824 -0.083275 0.020272 0.077652 -0.051743 -0.423576 0.090463 -0.007662 -0.482213 -0.015496 -0.212961 -0.341596 -4.158150 5.330503 -6.535452 -4.233465 -0.784712 13.290799 -0.566171 -0.046781 1.752611 9.413818 -14.779667 8.310423 -0.914636 0.054370 -6.687297 0.000008 0.000017 9.232002 0.000000 0.000003 -0.000001 -0.914701 0.060949 -6.688446 -4.238890 -0.255703 6.901083 -0.000001 0.000002 -0.000002 10.153324 -1.813269 23.234422 0.363246 0.028073 1.123967 1.094193 0.106249 3.391390 -4.293430 21.655453 -21.081148 -0.052729 -0.029601 -0.908090 0.000008 0.000020 9.231990 0.000027 -0.000027 0.039535 -1.018270 0.061979 -0.634239 4.238997 0.255730 6.901277 0.020774 -0.000037 0.033687 -0.016241 -0.212715 -12.971830 23.279749 5.096320 -20.192256 -22.427158 56.941829 -6.931261 -31.418792 -6.669910 -7.157312 0.573902 -8.145194 12.087565 6.531812 6.211329 -14.067381 14.649014 9.794554 -9.767120 -17.279832 -10.572201 2.649138 -6.068998 6.680575 6.561773 -22.883326 -5.424875 -20.354042 22.427266 -56.941897 -6.931014 31.418734 6.669911 -7.157457 -0.573837 8.145250 12.087428 -6.531882 -6.211416 -14.067360 -14.649009 -9.794633 -9.767095 17.279819 10.572303 2.649025 6.069018 -6.680546 6.561745 0.126651 -0.577731 -48.651612 -0.255853 -0.071834 -3.168985 0.086415 0.221026 5.636179 -0.073821 0.127212 44.310319 0.144922 0.078329 29.531207 -0.654610 -0.437756 -4.703038 0.227995 0.056402 0.032622 -0.227606 -0.053665 0.035009 0.041171 0.020094 -8.483074 0.000000 -0.000000 -0.000001 
-6.620823 66.997337 0.259940 0.002643 1.295024 -9.433765 0.003491 -0.000000 -0.000007 0.055964 -0.205497 0.195796 0.101584 -0.181307 0.045114 0.171733 -0.117111 -0.915906 0.201260 -0.031446 -1.043669 -0.025589 -0.327989 -0.992766 -5.231815 5.365905 -1.582792 -2.447868 -0.329331 7.620168 -1.442987 -0.153909 4.476722 9.192688 -15.309560 7.497973 -0.906112 0.061745 -6.830759 0.000007 0.000014 9.232001 0.000000 0.000001 0.000003 -0.909460 0.064091 -6.832488 -4.238889 -0.255704 6.901085 0.000000 0.000001 -0.000004 12.132040 -1.137600 29.094482 -2.823835 0.025151 -8.722190 2.386563 0.316986 7.427562 -4.814918 21.815773 -21.206160 -0.085107 -0.044682 -3.214648 0.000010 0.000020 9.231987 0.000028 -0.000028 0.039535 -2.165046 0.166986 -2.619798 4.239066 0.255722 6.901398 0.020776 -0.000034 0.033687 -0.025006 -0.327656 -13.535007 23.450476 5.242765 -20.242592 -22.427163 56.941829 -6.931242 -31.418792 -6.669906 -7.157302 0.573904 -8.145196 12.087563 6.531816 6.211330 -14.067372 14.649009 9.794552 -9.767124 -17.279827 -10.572192 2.649148 -6.068997 6.680581 6.561790 -22.610641 -5.934191 -20.573355 22.427225 -56.941901 -6.931037 31.418730 6.669902 -7.157479 -0.573834 8.145260 12.087417 -6.531875 -6.211417 -14.067358 -14.649004 -9.794630 -9.767101 17.279824 10.572312 2.649016 6.069020 -6.680540 6.561739 0.208054 -0.875286 -46.041513 -0.391012 -0.106772 -4.854789 0.122035 0.334447 8.256416 -0.118658 0.194919 40.925691 0.215857 0.117456 27.402622 -0.935674 -0.710713 -1.388181 0.340463 0.084721 0.047657 -0.340148 -0.082251 0.050134 0.043264 0.019731 -8.064853 0.000000 0.000000 -0.000002 
-7.896505 66.131760 0.378061 0.023401 1.757353 -9.769904 0.003491 -0.000000 -0.000007 0.096764 -0.350290 0.336934 0.178130 -0.310502 0.077605 0.292933 -0.203081 -1.573136 0.348582 -0.063245 -1.795331 -0.040989 -0.447391 -1.703911 -6.288110 5.292664 3.397781 -0.693280 -0.059736 2.146696 -2.280800 -0.296185 7.095602 8.943765 -15.871977 6.680742 -0.900293 0.067414 -7.019598 0.000008 0.000017 9.232002 0.000000 0.000002 0.000001 -0.900285 0.070188 -7.017535 -4.238888 -0.255697 6.901084 -0.000001 0.000002 -0.000002 13.955854 -0.303415 34.675060 -5.731109 0.507368 -17.812380 3.524871 0.581423 11.024763 -5.392830 21.936742 -21.311432 -0.118879 -0.057692 -6.448176 0.000009 0.000019 9.231989 0.000027 -0.000029 0.039536 -3.607692 0.349551 -5.443122 4.239127 0.255734 6.901487 0.020776 -0.000035 0.033687 -0.034396 -0.450791 -14.125228 23.674114 5.431539 -20.308382 -22.427163 56.941825 -6.931246 -31.418788 -6.669906 -7.157298 0.573903 -8.145197 12.087568 6.531821 6.211336 -14.067365 14.649011 9.794554 -9.767119 -17.279825 -10.572185 2.649155 -6.068988 6.680594 6.561817 -22.264055 -6.567747 -20.844107 22.427210 -56.941924 -6.931086 31.418740 6.669894 -7.157487 -0.573829 8.145260 12.087411 -6.531869 -6.211413 -14.067362 -14.649000 -9.794619 -9.767110 17.279836 10.572329 2.648985 6.069030 -6.680524 6.561724 0.304368 -1.172025 -43.366855 -0.525161 -0.138324 -6.583625 0.151241 0.453817 10.902524 -0.157333 0.268508 37.482637 0.292241 0.155597 25.230302 -1.171575 -1.013986 2.073206 0.453960 0.113367 0.062785 -0.453754 -0.111131 0.065347 0.037776 0.020724 -6.975487 -0.000000 0.000000 -0.000002 
